<?xml version="1.0" encoding="iso-8859-1"?>
<!-- Generator: Adobe Illustrator 19.0.0, SVG Export Plug-In . SVG Version: 6.00 Build 0)  -->
<svg version="1.1" id="Capa_1" xmlns="http://www.w3.org/2000/svg" xmlns:xlink="http://www.w3.org/1999/xlink" x="0px" y="0px"
	 viewBox="0 0 480 480" style="enable-background:new 0 0 480 480;" xml:space="preserve">
<path style="fill:#2196F3;" d="M432.012,352c-46.464,0-90.72-10.112-131.52-30.048c-3.84-1.92-8.256-2.144-12.256-0.736
	c-4.032,1.408-7.328,4.352-9.184,8.16L253.9,381.44c-65.088-36.32-118.976-90.176-155.264-155.264l52.032-25.216
	c3.84-1.856,6.752-5.152,8.16-9.184c1.376-4,1.12-8.416-0.768-12.256c-19.936-40.8-30.048-85.056-30.048-131.52
	c0-8.832-7.168-16-16-16h-96c-8.832,0-16,7.168-16,16c0,238.208,193.792,432,432,432c8.832,0,16-7.168,16-16v-96
	C448.012,359.168,440.844,352,432.012,352z"/>
<path style="fill:#4CAF50;" d="M272.012,224h96c8.832,0,16-7.168,16-16s-7.168-16-16-16h-57.376L475.308,27.328
	c6.24-6.24,6.24-16.384,0-22.624C472.204,1.568,468.108,0,464.012,0s-8.192,1.568-11.328,4.672L288.012,169.376V112
	c0-8.832-7.168-16-16-16c-8.832,0-16,7.168-16,16v96C256.012,216.832,263.18,224,272.012,224z"/>
<g>
</g>
<g>
</g>
<g>
</g>
<g>
</g>
<g>
</g>
<g>
</g>
<g>
</g>
<g>
</g>
<g>
</g>
<g>
</g>
<g>
</g>
<g>
</g>
<g>
</g>
<g>
</g>
<g>
</g>
</svg>
