<?xml version="1.0" encoding="iso-8859-1"?>
<!-- Generator: Adobe Illustrator 19.0.0, SVG Export Plug-In . SVG Version: 6.00 Build 0)  -->
<svg version="1.1" id="Capa_1" xmlns="http://www.w3.org/2000/svg" xmlns:xlink="http://www.w3.org/1999/xlink" x="0px" y="0px"
	 viewBox="0 0 480 480" style="enable-background:new 0 0 480 480;" xml:space="preserve">
<path style="fill:#2196F3;" d="M432,352c-46.464,0-90.72-10.112-131.52-30.048c-3.84-1.92-8.256-2.144-12.256-0.736
	c-4.032,1.408-7.328,4.352-9.184,8.16l-25.152,52.064C188.8,345.12,134.912,291.264,98.624,226.176l52.032-25.216
	c3.84-1.856,6.752-5.152,8.16-9.184c1.376-4,1.12-8.416-0.768-12.256C138.112,138.72,128,94.464,128,48c0-8.832-7.168-16-16-16H16
	C7.168,32,0,39.168,0,48c0,238.208,193.792,432,432,432c8.832,0,16-7.168,16-16v-96C448,359.168,440.832,352,432,352z"/>
<path style="fill:#4CAF50;" d="M464,0h-96c-8.832,0-16,7.168-16,16s7.168,16,16,16h57.376L260.672,196.672
	c-6.24,6.24-6.24,16.384,0,22.624C263.808,222.432,267.904,224,272,224s8.192-1.568,11.328-4.672L448,54.624V112
	c0,8.832,7.168,16,16,16s16-7.168,16-16V16C480,7.168,472.832,0,464,0z"/>
<g>
</g>
<g>
</g>
<g>
</g>
<g>
</g>
<g>
</g>
<g>
</g>
<g>
</g>
<g>
</g>
<g>
</g>
<g>
</g>
<g>
</g>
<g>
</g>
<g>
</g>
<g>
</g>
<g>
</g>
</svg>
