<?xml version="1.0" encoding="iso-8859-1"?>
<!-- Generator: Adobe Illustrator 19.0.0, SVG Export Plug-In . SVG Version: 6.00 Build 0)  -->
<svg version="1.1" id="Capa_1" xmlns="http://www.w3.org/2000/svg" xmlns:xlink="http://www.w3.org/1999/xlink" x="0px" y="0px"
	 viewBox="0 0 512 512" style="enable-background:new 0 0 512 512;" xml:space="preserve">
<path style="fill:#2196F3;" d="M432,384c-46.464,0-90.72-10.112-131.52-30.048c-3.84-1.92-8.256-2.144-12.256-0.736
	c-4.032,1.408-7.328,4.352-9.184,8.16l-25.152,52.064C188.8,377.12,134.912,323.264,98.624,258.176l52.032-25.216
	c3.84-1.856,6.752-5.152,8.16-9.184c1.376-4,1.12-8.416-0.768-12.256C138.112,170.72,128,126.464,128,80c0-8.832-7.168-16-16-16H16
	C7.168,64,0,71.168,0,80c0,238.208,193.792,432,432,432c8.832,0,16-7.168,16-16v-96C448,391.168,440.832,384,432,384z"/>
<circle style="fill:#4CAF50;" cx="368" cy="144" r="144"/>
<path style="fill:#FAFAFA;" d="M416,208c-4.096,0-8.192-1.568-11.328-4.672l-48-48C353.696,152.32,352,148.256,352,144V80
	c0-8.832,7.168-16,16-16s16,7.168,16,16v57.376l43.328,43.328c6.24,6.24,6.24,16.384,0,22.624C424.192,206.432,420.096,208,416,208z
	"/>
<g>
</g>
<g>
</g>
<g>
</g>
<g>
</g>
<g>
</g>
<g>
</g>
<g>
</g>
<g>
</g>
<g>
</g>
<g>
</g>
<g>
</g>
<g>
</g>
<g>
</g>
<g>
</g>
<g>
</g>
</svg>
