<?xml version="1.0" ?><!DOCTYPE svg  PUBLIC '-//W3C//DTD SVG 1.1//EN'  'http://www.w3.org/Graphics/SVG/1.1/DTD/svg11.dtd'><svg height="32px" id="Layer_1" style="enable-background:new 0 0 32 32;" version="1.1" viewBox="0 0 32 32" width="32px" xml:space="preserve" xmlns="http://www.w3.org/2000/svg" xmlns:xlink="http://www.w3.org/1999/xlink"><g transform="translate(0 384)"><path d="M2.126-374.996v-2.25c0.002-0.4,0.463-1.115,0.479-1.133c3.529-3.59,8.357-5.621,13.396-5.621   c5.051,0,9.896,2.041,13.426,5.65c0.006,0,0.444,0.703,0.444,1.104v2.25c0,0.824-0.604,1.805-1.344,2.172l-0.315,0.156   c-0.732,0.371-1.927,0.335-2.642-0.07l-2.646-1.512c-0.719-0.411-1.315-1.424-1.315-2.246v-1.503   c-3.47-1.996-7.755-1.993-11.226-0.001v1.504c0,0.822-0.599,1.832-1.313,2.246l-2.647,1.508c-0.713,0.409-1.902,0.445-2.644,0.074   l-0.313-0.156c-0.738-0.371-1.345-1.348-1.345-2.172H2.126z M29.999-362v8c0,1.1-0.897,2-2,2H4.001c-1.101,0-2-0.9-2-2v-8   c0-1.102,0.637-2.637,1.413-3.414l5.172-5.174C9.361-371.363,10.9-372,12-372v-2c0.943-1.258,2.426-2,3.999-2   c1.574,0,3.06,0.742,4,2v2c1.103,0,2.638,0.637,3.414,1.412l5.173,5.174C29.362-364.637,29.999-363.1,29.999-362z M12-357   c0-0.553-0.445-1-1-1H9c-0.553,0-1,0.447-1,1s0.447,1,1,1h2C11.555-356,12-356.447,12-357z M12-361c0-0.553-0.445-1-1-1H9   c-0.553,0-1,0.447-1,1s0.447,1,1,1h2C11.555-360,12-360.447,12-361z M12-365c0-0.553-0.445-1-1-1H9c-0.553,0-1,0.447-1,1   s0.447,1,1,1h2C11.555-364,12-364.447,12-365z M17.999-357c0-0.553-0.444-1-1-1h-2c-0.552,0-0.999,0.447-0.999,1s0.447,1,0.999,1h2   C17.553-356,17.999-356.447,17.999-357z M17.999-361c0-0.553-0.444-1-1-1h-2c-0.552,0-0.999,0.447-0.999,1s0.447,1,0.999,1h2   C17.553-360,17.999-360.447,17.999-361z M17.999-365c0-0.553-0.444-1-1-1h-2c-0.552,0-0.999,0.447-0.999,1s0.447,1,0.999,1h2   C17.553-364,17.999-364.447,17.999-365z M23.999-357c0-0.553-0.444-1-1-1h-2c-0.551,0-1,0.447-1,1s0.449,1,1,1h2   C23.553-356,23.999-356.447,23.999-357z M23.999-361c0-0.553-0.444-1-1-1h-2c-0.551,0-1,0.447-1,1s0.449,1,1,1h2   C23.553-360,23.999-360.447,23.999-361z M23.999-365c0-0.553-0.444-1-1-1h-2c-0.551,0-1,0.447-1,1s0.449,1,1,1h2   C23.553-364,23.999-364.447,23.999-365z"/></g></svg>